<?xml version="1.0" encoding="UTF-8" standalone="no"?>
<!-- Created with Inkscape (http://www.inkscape.org/) -->

<svg
   version="1.1"
   id="svg1"
   width="1032"
   height="817"
   viewBox="0 0 1032 817"
   sodipodi:docname="Map_Complet.svg"
   xml:space="preserve"
   inkscape:version="1.3.2 (091e20e, 2023-11-25, custom)"
   inkscape:export-filename="Map_Complet.png"
   inkscape:export-xdpi="96"
   inkscape:export-ydpi="96"
   xmlns:inkscape="http://www.inkscape.org/namespaces/inkscape"
   xmlns:sodipodi="http://sodipodi.sourceforge.net/DTD/sodipodi-0.dtd"
   xmlns="http://www.w3.org/2000/svg"
   xmlns:svg="http://www.w3.org/2000/svg"><defs
     id="defs1" /><sodipodi:namedview
     id="namedview1"
     pagecolor="#ffffff"
     bordercolor="#000000"
     borderopacity="0.25"
     inkscape:showpageshadow="2"
     inkscape:pageopacity="0.0"
     inkscape:pagecheckerboard="0"
     inkscape:deskcolor="#d1d1d1"
     showgrid="false"
     inkscape:zoom="0.70364481"
     inkscape:cx="533.64992"
     inkscape:cy="348.89762"
     inkscape:window-width="1920"
     inkscape:window-height="1009"
     inkscape:window-x="-8"
     inkscape:window-y="-8"
     inkscape:window-maximized="1"
     inkscape:current-layer="g1" /><g
     inkscape:groupmode="layer"
     inkscape:label="Image"
     id="g1"><path
       style="fill:#4dc4b8;fill-opacity:0.77"
       d="m 143.89362,404.6786 205.004,-46.18807 8.52703,-15.98818 -27.71285,-9.23762 4.9741,-144.24891 -7.81644,-1.42117 -8.52703,-11.36938 -23.09404,3.19764 -9.9482,9.59291 -4.9741,-24.51521 14.9223,-41.92456 -8.52703,-8.52703 54.00452,-11.01408 4.61881,-13.856424 -1.77646,-20.606988 20.25169,-23.804624 8.17174,8.882323 46.18807,5.329393 22.38345,-23.094038 13.50113,2.131757 22.73875,-3.908221 18.11994,-14.567009 19.8964,-1.421172 17.05406,-11.724665 27.00226,41.213975 -7.81645,6.750565 -1.77646,19.185816 15.98818,8.171737 11.01408,-3.908222 16.34347,9.948201 15.2776,-17.764644 8.17173,7.105857 8.17174,-2.131757 2.13176,-12.435251 17.76464,12.435251 -5.32939,20.606988 10.30349,8.882322 1.42117,12.07996 18.83053,3.19763 25.58108,43.34574 41.92457,-15.2776 1.06587,9.9482 -11.72466,14.92231 5.32939,19.18581 11.72467,6.03998 7.10586,12.43525 h 15.63288 l 56.49157,34.8187 70.70329,-22.02815 84.915,-3.19764 0.35529,10.30349 6.75057,2.13176 v -5.68469 l 5.32939,3.55293 8.17174,-11.01408 4.97408,3.19764 10.6588,-6.39527 2.1318,-9.23762 8.1717,-3.90822 -13.1458,19.8964 2.1317,9.23762 -42.63513,26.64696 H 959.6461 l -3.55293,9.23762 -3.90822,-4.61881 0.71058,6.39527 -112.98314,67.86095 -15.63288,-1.42118 -8.52703,-7.10585 0.71058,9.9482 12.79055,3.19763 -44.05632,26.64697 2.84234,3.55293 -1.42117,50.0963 -6.03998,5.68468 -22.73874,4.61881 v 14.9223 l 21.67286,10.3035 0.71059,38.72692 26.64697,8.88232 -1.06588,11.01408 8.52703,14.56701 5.68468,1.42117 -0.71058,-16.34347 7.10585,-3.55293 h 15.2776 l 3.55293,17.05406 -30.55519,6.75057 13.85642,58.62332 -12.07996,-3.90822 -0.71058,8.52703 6.39527,9.59291 -1.42117,13.85642 -5.3294,-1.06588 1.42118,-13.50113 -6.75057,-3.90822 -1.06588,5.68469 h -30.19989 l -1.42117,4.9741 -18.83053,-4.9741 -1.42117,4.9741 -19.18582,4.6188 7.81645,29.13402 -29.13402,7.10586 20.60699,87.04676 -5.68469,23.80462 9.23762,1.77647 15.98818,34.10811 -17.40935,1.06588 5.68468,11.01408 -84.20441,-8.52703 -136.78777,6.03998 4.9741,-15.63289 6.39528,2.13176 -5.68469,-6.75056 19.8964,-28.06814 10.65879,-25.58109 -8.88232,1.42117 -31.62107,-16.69876 -48.31983,6.75056 -7.10586,-34.8187 -19.54111,2.48705 -2.48705,6.39527 -8.17174,3.19764 -8.88232,-2.13176 -6.03998,-5.68469 9.9482,0.71059 -1.42117,-13.14584 -7.46115,4.61881 -15.63289,-18.11994 v -9.23761 l -38.37163,8.88232 -2.13176,-9.59291 -31.62106,9.23762 5.32939,20.25169 -30.55519,4.26351 17.76465,70.348 -9.23762,5.68468 -103.39023,-14.567 2.13176,-4.26352 -21.67287,-16.34347 -10.30349,-0.71059 10.65878,-19.54111 -3.90822,-13.50113 -26.64697,-4.6188 -6.39527,-10.65879 -13.50113,2.13176 -8.52703,-33.04224 h -17.76464 l -1.77647,-9.23762 -47.964537,-37.30575 16.343473,-23.09404 -4.618807,-5.32939 0.355293,-6.39528 -6.750565,-0.35529 -0.355293,6.03998 -20.962281,-92.02086 -29.48931,6.03998 -11.7246649,-60.0445 36.9504609,-10.65878 14.922301,-28.42344 24.159917,13.85643 1.776464,1.42117 18.830519,-18.83052 2.84235,-15.98818 13.85642,-12.43526 14.9223,14.56701 z"
       id="path1"
       inkscape:export-filename="path1.svg"
       inkscape:export-xdpi="300"
       inkscape:export-ydpi="300" /><path
       style="fill:#0e00ae;fill-opacity:1"
       d="m 516.59586,720.53398 6.03998,-18.47523 3.19764,-16.69876 -13.14584,-20.2517 -1.06588,-15.98818 3.19764,-6.39527 -8.88232,-7.10586 0.35529,-1.77646 -3.19764,-11.36938 5.3294,-21.31757 -0.71059,-11.36937 -1.42117,-6.75057 3.55293,-7.46115 -6.75057,-9.23761 -1.42117,-19.18582 -5.32939,-11.01408 2.84234,-2.48705 -0.35529,-17.05406 6.75056,-1.77646 3.55293,1.42117 -2.13175,5.32939 7.81644,7.46115 2.84234,6.39528 1.77647,5.68468 1.77646,6.39527 -1.06588,6.75057 v 8.52703 l 2.13176,5.32939 1.42117,10.3035 v 19.8964 l 2.48705,2.48705 -0.71058,3.90822 -1.06588,7.10586 -6.03998,14.9223 6.03998,8.17174 2.48705,6.75056 -1.77647,3.19764 -3.55293,4.9741 14.56701,18.83052 h 5.68469 l 3.90822,-5.32939 3.19764,-7.10586 1.42117,-3.90822 4.9741,-0.71059 5.32939,1.06588 1.06588,-2.48705 v -2.48705 l 5.32939,-4.26351 -1.06587,-10.3035 2.13175,-0.35529 3.90822,-1.06588 7.10586,-0.71059 0.71059,-6.39527 2.84234,-0.35529 1.42117,3.55293 -0.35529,3.19763 h 1.77646 l 5.3294,-4.9741 2.48705,0.71059 3.90822,-3.19764 v -3.90822 l -1.42117,-3.55293 1.42117,-6.75056 -2.13176,-6.03998 0.71059,-3.19764 v -4.9741 l -1.42117,-3.19763 3.90822,2.84234 h 4.61881 l 0.35529,1.77646 -3.55293,1.42118 -0.35529,2.13175 -0.3553,4.61881 v 4.26352 l 0.71059,3.90822 -1.06588,4.26351 v 4.9741 l -1.06588,3.90822 -5.68468,3.19764 -4.9741,2.48705 -1.42118,2.48705 -7.46115,4.9741 -3.55293,2.84234 -2.13175,0.71059 1.06588,9.59291 -9.23762,9.9482 -9.23761,2.48705 -3.90823,-1.42117 -2.84234,7.46115 -4.61881,1.77646 7.46115,11.01408 -8.88232,11.72467 4.61881,9.9482 -4.61881,3.90822 3.90822,3.19764 -1.06588,6.75056 2.84235,1.42117 1.77646,4.61881 -1.77646,7.10586 2.84234,2.48705 -5.32939,1.06588 -8.17174,-3.90822 0.71059,-11.01408 -2.13176,-2.13176 -0.35529,-1.42117 -9.23762,0.35529 -2.13176,-3.90822 -1.42117,3.55293 -2.84234,4.26351 z"
       id="path2" /><path
       style="fill:#00619f;fill-opacity:1"
       d="m 592.80619,583.74622 8.52703,-7.10586 6.39527,-2.13176 2.84234,-2.66469 -0.53294,-6.75057 -4.9741,-4.6188 0.88824,-1.77647 1.77646,-2.6647 v -3.01998 l -1.59882,-1.77647 -4.79645,-6.92821 2.48705,-4.79645 -0.17765,-3.01999 4.61881,-8.70468 -0.53294,-5.15175 -0.35529,-3.37528 -1.77647,-4.44116 -2.3094,-1.42117 -4.26352,1.42117 -2.48705,4.44116 -0.88823,4.9741 0.35529,3.55293 1.06588,1.77646 1.24353,4.44117 1.24352,2.3094 -2.48705,3.90822 -2.3094,3.55293 v 4.08587 l 1.06588,3.19763 1.95411,1.77647 1.42117,1.77646 0.71059,4.9741 3.73057,2.30941 1.77647,2.66469 2.3094,3.55293 -1.59882,3.01999 -3.19763,2.6647 -3.37529,1.59882 -0.71058,2.13175 -3.73058,2.48705 -2.3094,2.6647 z"
       id="path3" /><path
       style="fill:#00619f;fill-opacity:1"
       d="m 614.83435,494.39006 2.48705,-2.13176 2.6647,-1.24352 1.77646,-2.84235 1.06588,-3.01999 2.13176,-2.84234 1.24352,-3.37528 0.71059,-2.6647 1.59881,-2.3094 -0.53293,-1.95411 -3.01999,-0.71059 -2.30941,1.42117 v 2.6647 l -4.08587,1.95411 v 1.77646 l -1.24352,1.95411 -0.53294,1.77647 -0.17765,2.3094 v 3.19764 l -1.95411,2.48705 -0.71058,1.95411 z"
       id="path4" /><path
       style="fill:#00619f;fill-opacity:1"
       d="m 505.97725,178.24769 2.70072,-1.19334 0.8165,-0.37684 1.88422,-1.13054 h 0.94211 l -0.18842,-0.75369 2.07265,-0.37684 c 0,0 0.62807,0.62807 0.8793,0.69088 0.25123,0.0628 1.31896,-1.38177 1.31896,-1.38177 l -0.69088,-1.00492 c 0,0 0.0628,-1.63299 -0.18842,-1.75861 -0.25123,-0.12561 -2.07265,-0.81649 -2.07265,-0.81649 l -2.00984,-1.19335 -1.38177,-0.0628 -3.14037,0.75369 c 0,0 -1.633,0.12561 -1.94703,0.0628 -0.31404,-0.0628 -1.44458,1.69581 -1.44458,1.69581 l -0.43965,1.06772 v 1.06773 l 0.75369,0.75369 0.0628,1.6958 0.56527,1.82142 z"
       id="path6" /><path
       style="fill:#00619f;fill-opacity:1"
       d="m 449.07365,322.07688 4.77337,-2.88915 2.63791,-2.26107 v -4.77337 c 0,0 -1.25615,-3.26599 -1.75861,-3.64283 -0.50246,-0.37685 -4.39652,-7.41129 -4.39652,-7.41129 l -1.88423,-5.0246 -3.51722,-5.40145 -10.67727,-10.67727 -1.00492,0.37684 -0.75369,-8.54182 1.25615,-1.75861 -3.01476,-1.25615 -1.88423,-2.26107 -4.27091,-2.26107 -3.14037,-1.75861 -3.26599,-0.37684 0.37684,3.89406 1.13054,3.01476 -1.13054,2.00984 1.88423,1.50738 1.38176,2.13546 2.00984,2.13545 0.62808,2.63792 2.38668,1.25615 2.00984,2.63791 c 0,0 -1.25615,2.38669 -0.37684,2.88915 0.8793,0.50246 4.14529,0.62807 4.14529,1.63299 0,1.00492 0.37685,3.89407 0.37685,3.89407 l 0.62807,5.77829 2.88915,2.76353 4.14529,4.27091 2.13546,4.77337 2.5123,4.52214 1.63299,3.64284 1.13054,3.51722 1.13053,2.00984 z"
       id="path7" /><path
       style="fill:#00619f;fill-opacity:1"
       d="m 391.85601,228.11685 -0.0628,-4.83618 v -3.95687 l -1.00493,-0.50246 -0.0628,-1.6958 -0.18843,-1.88423 -2.19826,-2.19826 -0.94211,-1.82142 -4.2081,-0.25123 -2.00984,1.00492 c 0,0 0.50246,0.62808 0.75369,0.75369 0.25123,0.12562 1.44457,0.31404 1.75861,0.69089 0.31403,0.37684 1.00492,1.19334 1.00492,1.19334 l 2.00984,0.50246 1.25615,1.38176 1.50738,1.633 c 0,0 -0.0628,0.8793 0,1.13053 0.0628,0.25123 1.57018,2.07265 1.19334,3.01476 -0.37685,0.94212 -1.57019,1.57019 -1.57019,1.57019 0,0 -0.31404,0.94211 -0.0628,1.6958 0.25123,0.75369 1.00492,2.26107 1.00492,2.26107 z"
       id="path8" /><path
       style="fill:#00619f;fill-opacity:1"
       d="m 398.4508,213.98516 0.75369,2.82634 1.44457,-0.31404 c 0,0 1.38177,-1.25615 1.633,-1.25615 0.25123,0 2.70072,-0.37684 2.70072,-0.37684 l 2.5123,-1.00492 0.62808,-1.75861 c 0,0 1.25615,0 0.56526,-0.62808 -0.69088,-0.62807 -2.76353,-0.50246 -3.20318,-0.37684 -0.43965,0.12561 -3.58003,0.31404 -3.58003,0.31404 0,0 -1.00492,-1.31896 -1.94703,-0.31404 -0.94211,1.00492 -3.07757,1.50738 -2.38668,2.19826 0.69088,0.69088 0.8793,0.69088 0.8793,0.69088 z"
       id="path9" /><path
       style="fill:#00619f;fill-opacity:1"
       d="m 367.26688,197.68662 -0.40825,4.2395 c 0,0 0.21982,1.60159 0.34544,1.6644 0.12561,0.0628 1.25615,0.0628 1.31896,0.40825 0.0628,0.34544 1.28755,1.633 1.50738,1.75861 0.21982,0.12562 1.79001,0.91071 1.79001,0.91071 l 2.63791,-0.15702 0.84791,1.09913 3.04616,-0.18842 c 0,0 -1.19334,-1.13054 -1.41317,-1.16194 -0.21983,-0.0314 -2.41809,-1.44457 -2.41809,-1.44457 0,0 -3.20318,-1.94703 -3.20318,-2.32388 0,-0.37684 -0.18842,-1.6958 -0.18842,-1.6958 l -1.44458,-1.94703 -1.13053,-1.00492 z"
       id="path10" /><path
       style="fill:#1a36ad;fill-opacity:1"
       d="m 632.06605,250.03737 1.77647,2.57588 1.9097,0.17764 h 2.22058 l 1.11029,0.26647 0.97705,-1.95411 c 0,0 0.84382,-2.08734 1.19912,-2.08734 0.35529,0 1.64323,-1.06588 1.64323,-1.06588 0,0 -0.97706,-1.46559 -1.51,-1.46559 -0.53294,0 -2.44264,-0.62176 -2.79793,-1.11029 -0.35529,-0.48852 -0.44412,-1.33235 -0.44412,-1.33235 0,0 -1.19911,-0.84382 -2.35381,-0.26646 -1.1547,0.57735 -1.68764,0.75499 -2.17617,1.5544 -0.48853,0.79941 -1.95411,2.22058 -1.9097,2.39823 0.0444,0.17765 0.35529,2.3094 0.35529,2.3094 z"
       id="path11" /><path
       style="fill:#1a36ad;fill-opacity:1"
       d="m 791.32609,237.77977 -2.39822,7.63879 c 0,0 -1.42118,2.6647 -0.97706,3.90823 0.44412,1.24352 1.95411,3.99704 2.39823,4.35233 0.44411,0.3553 4.26351,2.13176 4.26351,2.13176 0,0 3.55293,1.42117 3.99705,1.42117 0.44411,0 5.06292,-4.6188 5.06292,-4.6188 l -2.6647,-5.59587 c 0,0 -1.68764,-2.66469 -2.57587,-3.55293 -0.88823,-0.88823 -2.84234,-4.6188 -2.84234,-4.6188 z"
       id="path12" /><path
       style="fill:#1a36ad;fill-opacity:1"
       d="m 808.2025,282.54667 -1.86528,5.15175 0.17764,3.28646 1.24353,2.93116 0.97705,1.24353 0.26647,2.48705 -0.0888,3.19764 1.77646,2.66469 2.48706,-0.53294 -0.71059,-3.55293 c 0,0 -0.0888,-2.04293 -0.62176,-2.48705 -0.53294,-0.44411 -1.86529,-1.77646 -1.86529,-1.77646 l 0.62176,-1.59882 0.88823,-1.33235 0.62177,-1.68764 -0.79941,-2.3094 c 0,0 -0.53294,-0.71059 -0.88823,-1.42117 -0.3553,-0.71059 -2.22059,-4.26352 -2.22059,-4.26352 z"
       id="path13" /><path
       style="fill:#1a36ad;fill-opacity:1"
       d="m 526.82934,61.865391 c -0.56527,4.710562 -0.69089,4.01968 -0.50246,5.087407 0.18842,1.067728 0.18842,3.894066 0.18842,4.584948 0,0.690883 -1.00492,3.831258 0.62807,2.889145 1.633,-0.942112 4.1453,-3.580027 4.89899,-3.956872 0.75369,-0.376845 1.57019,-1.130535 2.82634,-2.512301 1.25615,-1.381765 3.32879,-1.75861 4.89898,-3.26599 1.57019,-1.50738 2.63792,-1.00492 2.5123,-2.826337 -0.12561,-1.821418 -0.56526,-2.637915 -1.38176,-3.01476 -0.8165,-0.376846 -4.33372,-4.396526 -5.65268,-1.947033 -1.31896,2.449493 -3.64283,3.956873 -3.89406,4.01968 -0.25123,0.06281 -4.52214,0.942113 -4.52214,0.942113 z"
       id="path14" /><path
       style="fill:#1a36ad;fill-opacity:1"
       d="m 691.75526,781.11142 -3.77499,3.10881 -1.1547,2.265 c 0,0 -1.73205,1.24352 -0.97705,1.99852 0.75499,0.755 0.84382,1.1547 1.37676,2.08735 0.53293,0.93264 0.13323,1.86528 1.19911,0.62176 1.06588,-1.24353 2.26499,-2.48705 2.44264,-2.84235 0.17764,-0.35529 -0.3553,-0.35529 1.11029,-0.57735 1.46558,-0.22205 1.50999,-0.3997 2.57587,-0.88823 1.06588,-0.48853 2.70911,-1.02147 3.01999,-1.42117 0.31088,-0.3997 0.88823,-0.97706 1.33235,-1.59882 0.44412,-0.62176 1.33235,-1.5544 1.33235,-2.26499 0,-0.71059 -0.22206,-2.35382 -0.44412,-3.19764 -0.22206,-0.84382 -0.57735,-2.35381 -0.755,-3.01999 -0.17764,-0.66617 -1.86528,-0.48852 -1.86528,-0.48852 0,0 -0.755,1.82087 -0.79941,2.08734 -0.0444,0.26647 -0.3553,1.46559 -0.44412,1.77647 -0.0888,0.31088 -0.0444,1.02146 -0.53294,1.11029 -0.48853,0.0888 -3.64175,1.24352 -3.64175,1.24352 z"
       id="path15" /><g
       id="g36"
       transform="matrix(1.2943982,0,0,1.2384448,779.09717,-366.0866)"><g
         id="g35"
         transform="translate(2.1317573,111.56197)"><g
           id="g34"><g
             id="g33"
             style="fill:#ff5e5e;fill-opacity:1"
             transform="matrix(-1,0,0,1,-571.02588,0)"><circle
               style="fill:#ff5e5e;fill-opacity:1"
               id="circle32"
               cx="-284.5896"
               cy="395.97394"
               r="2.4870503" /><circle
               style="fill:#ff5e5e;fill-opacity:1;stroke-width:9.71429"
               id="circle33"
               cx="-285.51294"
               cy="358.97412"
               r="24.159916" /><path
               sodipodi:type="star"
               style="fill:#ff5e5e;fill-opacity:1"
               id="path33"
               inkscape:flatsided="false"
               sodipodi:sides="3"
               sodipodi:cx="-258.03146"
               sodipodi:cy="383.00574"
               sodipodi:r1="5.2593551"
               sodipodi:r2="2.6296773"
               sodipodi:arg1="1.5707963"
               sodipodi:arg2="2.6179939"
               inkscape:rounded="0.2"
               inkscape:randomized="0"
               d="m -258.03146,388.26509 c -0.91095,0 -1.8219,-3.15561 -2.27737,-3.94451 -0.45547,-0.78891 -2.73284,-3.15562 -2.27737,-3.94452 0.45547,-0.7889 3.64379,0 4.55474,0 0.91094,0 4.09926,-0.7889 4.55473,0 0.45547,0.7889 -1.82189,3.15561 -2.27737,3.94452 -0.45547,0.7889 -1.36642,3.94451 -2.27736,3.94451 z"
               transform="translate(-26.913439,0.62177134)"
               inkscape:transform-center-y="1.3148334"
               inkscape:transform-center-x="3e-06" /></g><ellipse
             style="fill:#ffffff;fill-opacity:1;stroke-width:1.1937"
             id="ellipse33"
             cx="285.87982"
             cy="354.61115"
             rx="7.474093"
             ry="7.2228627"
             transform="scale(-1,1)" /><rect
             style="fill:#ffffff;fill-opacity:1;stroke-width:1.066"
             id="rect33"
             width="3.5172203"
             height="9.4211254"
             x="283.99561"
             y="362.39929"
             ry="1.9984206"
             transform="scale(-1,1)" /></g><circle
           style="fill:#ff6666;fill-opacity:1"
           id="circle34"
           cx="-287.75256"
           cy="352.31866"
           r="1.6643988" /></g><rect
         style="fill:#ffffff;fill-opacity:1"
         id="rect35"
         width="156.15123"
         height="22.916391"
         x="-251.72501"
         y="459.92667"
         ry="8.1538782"
         rx="9.9482012" /><text
         xml:space="preserve"
         style="font-style:normal;font-variant:normal;font-weight:normal;font-stretch:normal;font-size:15.1349px;font-family:'Times New Roman';-inkscape-font-specification:'Times New Roman, ';fill:#000000;fill-opacity:1;stroke-width:1.26125"
         x="-247.60231"
         y="475.50348"
         id="text35"><tspan
           sodipodi:role="line"
           id="tspan35"
           x="-247.60231"
           y="475.50348"
           style="font-weight:bold;stroke-width:1.26125">агрогородок Поречье</tspan></text></g><g
       id="g40"
       transform="matrix(1.2943982,0,0,1.2384448,1069.4452,-118.86323)"><g
         id="g39"
         transform="translate(4.9741005,122.22075)"><g
           id="g38"><g
             id="g37"
             style="fill:#ff5e5e;fill-opacity:1"
             transform="matrix(-1,0,0,1,-571.02588,0)"><circle
               style="fill:#ff5e5e;fill-opacity:1"
               id="circle36"
               cx="-284.5896"
               cy="395.97394"
               r="2.4870503" /><circle
               style="fill:#ff5e5e;fill-opacity:1;stroke-width:9.71429"
               id="circle37"
               cx="-285.51294"
               cy="358.97412"
               r="24.159916" /><path
               sodipodi:type="star"
               style="fill:#ff5e5e;fill-opacity:1"
               id="path37"
               inkscape:flatsided="false"
               sodipodi:sides="3"
               sodipodi:cx="-258.03146"
               sodipodi:cy="383.00574"
               sodipodi:r1="5.2593551"
               sodipodi:r2="2.6296773"
               sodipodi:arg1="1.5707963"
               sodipodi:arg2="2.6179939"
               inkscape:rounded="0.2"
               inkscape:randomized="0"
               d="m -258.03146,388.26509 c -0.91095,0 -1.8219,-3.15561 -2.27737,-3.94451 -0.45547,-0.78891 -2.73284,-3.15562 -2.27737,-3.94452 0.45547,-0.7889 3.64379,0 4.55474,0 0.91094,0 4.09926,-0.7889 4.55473,0 0.45547,0.7889 -1.82189,3.15561 -2.27737,3.94452 -0.45547,0.7889 -1.36642,3.94451 -2.27736,3.94451 z"
               transform="translate(-26.913439,0.62177134)"
               inkscape:transform-center-y="1.3148334"
               inkscape:transform-center-x="3e-06" /></g><ellipse
             style="fill:#ffffff;fill-opacity:1;stroke-width:1.1937"
             id="ellipse37"
             cx="285.87982"
             cy="354.61115"
             rx="7.474093"
             ry="7.2228627"
             transform="scale(-1,1)" /><rect
             style="fill:#ffffff;fill-opacity:1;stroke-width:1.066"
             id="rect37"
             width="3.5172203"
             height="9.4211254"
             x="283.99561"
             y="362.39929"
             ry="1.9984206"
             transform="scale(-1,1)" /></g><circle
           style="fill:#ff6666;fill-opacity:1"
           id="circle38"
           cx="-287.75256"
           cy="352.31866"
           r="1.6643988" /></g><rect
         style="fill:#ffffff;fill-opacity:1;stroke-width:0.873709"
         id="rect39"
         width="119.20077"
         height="22.916391"
         x="-248.88266"
         y="470.58545"
         ry="8.1538782"
         rx="7.5941334" /><text
         xml:space="preserve"
         style="font-style:normal;font-variant:normal;font-weight:normal;font-stretch:normal;font-size:15.1349px;font-family:'Times New Roman';-inkscape-font-specification:'Times New Roman, ';fill:#000000;fill-opacity:1;stroke-width:1.26125"
         x="-242.6282"
         y="486.16226"
         id="text39"><tspan
           sodipodi:role="line"
           id="tspan39"
           x="-242.6282"
           y="486.16226"
           style="font-weight:bold;stroke-width:1.26125">деревня Бабино</tspan></text></g><g
       id="g51"
       transform="matrix(1.2943982,0,0,1.2384448,826.76317,-379.7019)"><g
         id="g50"><g
           id="g49"><g
             id="g48"
             style="fill:#ff5e5e;fill-opacity:1"
             transform="matrix(-1,0,0,1,-571.02588,0)"><circle
               style="fill:#ff5e5e;fill-opacity:1"
               id="circle47"
               cx="-284.5896"
               cy="395.97394"
               r="2.4870503" /><circle
               style="fill:#ff5e5e;fill-opacity:1;stroke-width:9.71429"
               id="circle48"
               cx="-285.51294"
               cy="358.97412"
               r="24.159916" /><path
               sodipodi:type="star"
               style="fill:#ff5e5e;fill-opacity:1"
               id="path48"
               inkscape:flatsided="false"
               sodipodi:sides="3"
               sodipodi:cx="-258.03146"
               sodipodi:cy="383.00574"
               sodipodi:r1="5.2593551"
               sodipodi:r2="2.6296773"
               sodipodi:arg1="1.5707963"
               sodipodi:arg2="2.6179939"
               inkscape:rounded="0.2"
               inkscape:randomized="0"
               d="m -258.03146,388.26509 c -0.91095,0 -1.8219,-3.15561 -2.27737,-3.94451 -0.45547,-0.78891 -2.73284,-3.15562 -2.27737,-3.94452 0.45547,-0.7889 3.64379,0 4.55474,0 0.91094,0 4.09926,-0.7889 4.55473,0 0.45547,0.7889 -1.82189,3.15561 -2.27737,3.94452 -0.45547,0.7889 -1.36642,3.94451 -2.27736,3.94451 z"
               transform="translate(-26.913439,0.62177134)"
               inkscape:transform-center-y="1.3148334"
               inkscape:transform-center-x="3e-06" /></g><ellipse
             style="fill:#ffffff;fill-opacity:1;stroke-width:1.1937"
             id="ellipse48"
             cx="285.87982"
             cy="354.61115"
             rx="7.474093"
             ry="7.2228627"
             transform="scale(-1,1)" /><rect
             style="fill:#ffffff;fill-opacity:1;stroke-width:1.066"
             id="rect48"
             width="3.5172203"
             height="9.4211254"
             x="283.99561"
             y="362.39929"
             ry="1.9984206"
             transform="scale(-1,1)" /></g><circle
           style="fill:#ff6666;fill-opacity:1"
           id="circle49"
           cx="-287.75256"
           cy="352.31866"
           r="1.6643988" /></g><rect
         style="fill:#ffffff;fill-opacity:1;stroke-width:0.906932"
         id="rect50"
         width="128.43839"
         height="22.916391"
         x="-254.92265"
         y="348.36469"
         ry="8.1538782"
         rx="8.1826506" /><text
         xml:space="preserve"
         style="font-style:normal;font-variant:normal;font-weight:normal;font-stretch:normal;font-size:15.1349px;font-family:'Times New Roman';-inkscape-font-specification:'Times New Roman, ';fill:#000000;fill-opacity:1;stroke-width:1.26125"
         x="-247.60231"
         y="363.9415"
         id="text50"><tspan
           sodipodi:role="line"
           id="tspan50"
           x="-247.60231"
           y="363.9415"
           style="font-weight:bold;stroke-width:1.26125">деревня Запурье</tspan></text></g><path
       style="display:none;fill:#4dc4b8;fill-opacity:0.77"
       d="m 378.03164,180.48879 11.36937,90.95498 264.33791,-29.8446 1.42117,-52.58335 z"
       id="path51" /><path
       style="display:none;fill:#4dc4b8;fill-opacity:0.77"
       d="m 426.35147,32.686946 -4.26352,72.479754 39.79281,17.05405 19.8964,-25.581084 25.58109,-4.263514 h 149.22301 l 11.36937,-54.00452 -171.96175,2.842343 z"
       id="path52" /><path
       style="display:none;fill:#4dc4b8;fill-opacity:0.77"
       d="m 677.89884,447.66904 -8.52703,46.89866 19.8964,15.63289 8.52703,15.63289 22.73874,2.84234 1.42117,-22.73874 28.42343,-11.36938 159.17122,4.26352 7.10586,-32.68695 -63.95272,-2.84234 H 748.95741 l -39.7928,-27.00226 z"
       id="path53" /></g></svg>
